<svg width="195" height="91" viewBox="0 0 195 91" fill="none" xmlns="http://www.w3.org/2000/svg">
<path d="M0.359985 66.9998V0.759766H9.97399V57.9378H39.966V66.9998H0.359985Z" fill="black"/>
<path d="M65.6699 68.3798C60.7019 68.3798 56.3933 67.2604 52.7439 65.0218C49.0946 62.7831 46.2733 59.7011 44.2799 55.7758C42.3173 51.8198 41.3359 47.2658 41.3359 42.1138C41.3359 36.9311 42.3479 32.3771 44.3719 28.4518C46.3959 24.4958 49.2326 21.4291 52.8819 19.2518C56.5313 17.0438 60.7939 15.9398 65.6699 15.9398C70.6379 15.9398 74.9466 17.0591 78.5959 19.2978C82.2453 21.5364 85.0666 24.6184 87.0599 28.5438C89.0533 32.4691 90.0499 36.9924 90.0499 42.1138C90.0499 47.2964 89.0379 51.8658 87.0139 55.8218C85.0206 59.7471 82.1993 62.8291 78.5499 65.0678C74.9006 67.2758 70.6073 68.3798 65.6699 68.3798ZM65.6699 59.3178C70.4233 59.3178 73.9653 57.7231 76.2959 54.5338C78.6573 51.3138 79.8379 47.1738 79.8379 42.1138C79.8379 36.9311 78.6419 32.7911 76.2499 29.6938C73.8886 26.5658 70.3619 25.0018 65.6699 25.0018C62.4499 25.0018 59.7973 25.7378 57.7119 27.2098C55.6266 28.6511 54.0779 30.6598 53.0659 33.2358C52.0539 35.7811 51.5479 38.7404 51.5479 42.1138C51.5479 47.3271 52.7439 51.4978 55.1359 54.6258C57.5279 57.7538 61.0393 59.3178 65.6699 59.3178Z" fill="black"/>
<path d="M116.948 90.4598C114.28 90.4598 111.689 90.0458 109.174 89.2178C106.69 88.3898 104.421 87.1631 102.366 85.5378C100.312 83.9431 98.6098 81.9651 97.2604 79.6038L106.138 75.0958C107.212 77.2118 108.745 78.7604 110.738 79.7418C112.732 80.7231 114.832 81.2138 117.04 81.2138C119.77 81.2138 122.1 80.7231 124.032 79.7418C125.964 78.7911 127.421 77.3498 128.402 75.4178C129.414 73.4858 129.905 71.0938 129.874 68.2418V54.3498H131.024V17.3198H139.534V68.3338C139.534 69.6524 139.488 70.9098 139.396 72.1058C139.304 73.3018 139.136 74.4978 138.89 75.6938C138.185 79.0364 136.836 81.7964 134.842 83.9738C132.88 86.1511 130.365 87.7764 127.298 88.8498C124.262 89.9231 120.812 90.4598 116.948 90.4598ZM116.212 68.3798C111.582 68.3798 107.58 67.2298 104.206 64.9298C100.864 62.6298 98.2724 59.5018 96.4324 55.5458C94.6231 51.5591 93.7184 47.0818 93.7184 42.1138C93.7184 37.1151 94.6384 32.6531 96.4784 28.7278C98.3184 24.7718 100.925 21.6591 104.298 19.3898C107.702 17.0898 111.735 15.9398 116.396 15.9398C121.088 15.9398 125.029 17.0898 128.218 19.3898C131.438 21.6591 133.861 24.7718 135.486 28.7278C137.142 32.6838 137.97 37.1458 137.97 42.1138C137.97 47.0818 137.142 51.5438 135.486 55.4998C133.83 59.4558 131.392 62.5991 128.172 64.9298C124.952 67.2298 120.966 68.3798 116.212 68.3798ZM117.546 59.6858C120.705 59.6858 123.281 58.9344 125.274 57.4318C127.268 55.9291 128.724 53.8591 129.644 51.2218C130.564 48.5844 131.024 45.5484 131.024 42.1138C131.024 38.6791 130.549 35.6431 129.598 33.0058C128.678 30.3684 127.237 28.3138 125.274 26.8418C123.342 25.3698 120.874 24.6338 117.868 24.6338C114.679 24.6338 112.057 25.4158 110.002 26.9798C107.948 28.5438 106.414 30.6444 105.402 33.2818C104.421 35.9191 103.93 38.8631 103.93 42.1138C103.93 45.3951 104.421 48.3698 105.402 51.0378C106.414 53.6751 107.917 55.7758 109.91 57.3398C111.934 58.9038 114.48 59.6858 117.546 59.6858Z" fill="black"/>
<path d="M170.345 68.3798C165.377 68.3798 161.068 67.2604 157.419 65.0218C153.77 62.7831 150.948 59.7011 148.955 55.7758C146.992 51.8198 146.011 47.2658 146.011 42.1138C146.011 36.9311 147.023 32.3771 149.047 28.4518C151.071 24.4958 153.908 21.4291 157.557 19.2518C161.206 17.0438 165.469 15.9398 170.345 15.9398C175.313 15.9398 179.622 17.0591 183.271 19.2978C186.92 21.5364 189.742 24.6184 191.735 28.5438C193.728 32.4691 194.725 36.9924 194.725 42.1138C194.725 47.2964 193.713 51.8658 191.689 55.8218C189.696 59.7471 186.874 62.8291 183.225 65.0678C179.576 67.2758 175.282 68.3798 170.345 68.3798ZM170.345 59.3178C175.098 59.3178 178.64 57.7231 180.971 54.5338C183.332 51.3138 184.513 47.1738 184.513 42.1138C184.513 36.9311 183.317 32.7911 180.925 29.6938C178.564 26.5658 175.037 25.0018 170.345 25.0018C167.125 25.0018 164.472 25.7378 162.387 27.2098C160.302 28.6511 158.753 30.6598 157.741 33.2358C156.729 35.7811 156.223 38.7404 156.223 42.1138C156.223 47.3271 157.419 51.4978 159.811 54.6258C162.203 57.7538 165.714 59.3178 170.345 59.3178Z" fill="black"/>
</svg>
