<svg width="21" height="21" viewBox="0 0 21 21" fill="none" xmlns="http://www.w3.org/2000/svg">
<path fill-rule="evenodd" clip-rule="evenodd" d="M7.5 3.5H13.5C14.0523 3.5 14.5 3.94772 14.5 4.5V9.5C14.5 11.7091 12.7091 13.5 10.5 13.5C8.29086 13.5 6.5 11.7091 6.5 9.5V4.5C6.5 3.94772 6.94772 3.5 7.5 3.5Z" stroke="white" stroke-linecap="round" stroke-linejoin="round"/>
<path d="M10.5 13.5V16.5" stroke="white" stroke-linecap="round" stroke-linejoin="round"/>
<path fill-rule="evenodd" clip-rule="evenodd" d="M7.5 16.5H13.5C14.0523 16.5 14.5 16.9477 14.5 17.5C14.5 18.0523 14.0523 18.5 13.5 18.5H7.5C6.94772 18.5 6.5 18.0523 6.5 17.5C6.5 16.9477 6.94772 16.5 7.5 16.5ZM14.5 5.5H16.5C17.0523 5.5 17.5 5.94772 17.5 6.5V7.5C17.5 8.60457 16.6046 9.5 15.5 9.5H14.5V5.5ZM6.5 5.5H4.5C3.94772 5.5 3.5 5.94772 3.5 6.5V7.5C3.5 8.60457 4.39543 9.5 5.5 9.5H6.5V5.5Z" stroke="white" stroke-linecap="round" stroke-linejoin="round"/>
</svg>
