<svg width="21" height="21" viewBox="0 0 21 21" fill="none" xmlns="http://www.w3.org/2000/svg">
<path fill-rule="evenodd" clip-rule="evenodd" d="M10 19C14.438 19 18 15.4737 18 11.0357C18 6.59771 14.438 3 10 3C5.562 3 2 6.59771 2 11.0357C2 15.4737 5.562 19 10 19Z" stroke="white" stroke-linecap="round" stroke-linejoin="round"/>
<path d="M3 8H17" stroke="white" stroke-linecap="round" stroke-linejoin="round"/>
<path d="M3 14H17" stroke="white" stroke-linecap="round" stroke-linejoin="round"/>
<path fill-rule="evenodd" clip-rule="evenodd" d="M10 19C12.219 19 14 15.4737 14 11.0357C14 6.59771 12.219 3 10 3C7.781 3 6 6.59771 6 11.0357C6 15.4737 7.781 19 10 19Z" stroke="white" stroke-linecap="round" stroke-linejoin="round"/>
</svg>
