<svg width="186" height="194" viewBox="0 0 186 194" fill="none" xmlns="http://www.w3.org/2000/svg">
<rect width="186" height="194" fill="#F25F4C"/>
<path d="M93 86C110.673 86 125 71.6731 125 54C125 36.3269 110.673 22 93 22C75.3269 22 61 36.3269 61 54C61 71.6731 75.3269 86 93 86Z" fill="white"/>
<path d="M93 172C133.391 172 165 154.399 165 131.946C165 115.8 147.866 101.325 121.306 95.072C120.608 94.9103 119.856 95.0182 119.265 95.4225C111.423 100.382 102.319 103.024 93 103.024C83.6812 103.024 74.577 100.382 66.7351 95.4225C66.1175 95.0182 65.3923 94.9103 64.6942 95.072C38.1339 101.325 21 115.8 21 131.946C21 154.399 52.6092 172 93 172Z" fill="white"/>
</svg>
