<svg width="21" height="21" viewBox="0 0 21 21" fill="none" xmlns="http://www.w3.org/2000/svg">
<path fill-rule="evenodd" clip-rule="evenodd" d="M10.5 19.5C13.5 16.9978 14.5 13.9978 14.5 10.5C14.5 7.0022 13.5 4.0022 10.5 1.5C7.5 4.0022 6.5 7.0022 6.5 10.5C6.5 13.9978 7.5 16.9978 10.5 19.5Z" stroke="white" stroke-linecap="round" stroke-linejoin="round"/>
<path d="M6.90554 14.3618C6.48109 14.607 6.09071 14.9078 5.7344 15.2641C4.61538 16.3831 4.04425 17.8381 4.021 19.6292C6.52927 19.5193 7.90307 18.8646 8.94653 17.982M14.062 14.3618C14.4864 14.607 14.8768 14.9078 15.2331 15.2641C16.3521 16.3831 16.9233 17.8381 16.9465 19.6292C14.4383 19.5193 13.0645 18.8646 12.021 17.982L14.062 14.3618Z" stroke="white" stroke-linecap="round" stroke-linejoin="round"/>
<path d="M10.5 9.5C11.6046 9.5 12.5 8.60457 12.5 7.5C12.5 6.39543 11.6046 5.5 10.5 5.5C9.39543 5.5 8.5 6.39543 8.5 7.5C8.5 8.60457 9.39543 9.5 10.5 9.5Z" stroke="white" stroke-linecap="round" stroke-linejoin="round"/>
</svg>
