<svg width="256" height="256" viewBox="0 0 256 256" fill="none" xmlns="http://www.w3.org/2000/svg">
<g clip-path="url(#clip0_908_36)">
<path d="M218.123 218.127H180.192V158.724C180.192 144.559 179.939 126.324 160.464 126.324C140.708 126.324 137.685 141.758 137.685 157.693V218.124H99.7541V95.9666H136.168V112.661H136.678C144.103 99.9651 157.909 92.3826 172.606 92.9281C211.051 92.9281 218.139 118.216 218.139 151.114L218.123 218.127ZM56.9551 79.2686C44.7982 79.2708 34.9414 69.4173 34.9392 57.2602C34.937 45.103 44.7903 35.246 56.9472 35.2438C69.104 35.2416 78.9609 45.0951 78.9631 57.2522C78.9641 63.0903 76.646 68.6897 72.5187 72.8185C68.3914 76.9474 62.793 79.2676 56.9551 79.2686ZM75.9207 218.127H37.95V95.9666H75.9207V218.127ZM237.033 0.0183564H18.8895C8.57962 -0.0979937 0.12485 8.16066 -0.000976562 18.4707V237.524C0.120542 247.839 8.57463 256.106 18.8895 255.998H237.033C247.369 256.126 255.856 247.86 255.999 237.524V18.4549C255.852 8.12449 247.364 -0.133694 237.033 0.000889456" fill="#F25F4C"/>
</g>
<defs>
<clipPath id="clip0_908_36">
<rect width="256" height="256" fill="white"/>
</clipPath>
</defs>
</svg>
