<svg width="543" height="115" viewBox="0 0 543 115" fill="none" xmlns="http://www.w3.org/2000/svg">
<path d="M542.864 0V42.1901H530.74V20.6527L493.489 58L485 49.3408L522.223 12.1183H500.674V0H542.864Z" fill="black"/>
<path d="M28.1995 86.6923V13.3872H0V1.76923H68.7032V13.3872H40.5037V86.6923H28.1995Z" fill="black"/>
<path d="M88.1856 88.4615C81.8667 88.4615 76.3132 87.0855 71.5249 84.3333C66.776 81.5419 63.067 77.6692 60.3982 72.7154C57.7686 67.7222 56.4538 61.9427 56.4538 55.3769C56.4538 48.4179 57.749 42.3829 60.3393 37.2718C62.9689 32.1607 66.619 28.2094 71.2894 25.4179C75.9599 22.6265 81.3957 21.2308 87.5969 21.2308C94.0728 21.2308 99.5871 22.7444 104.14 25.7718C108.693 28.7598 112.087 33.0256 114.325 38.5692C116.601 44.1128 117.504 50.6983 117.033 58.3256H104.729V53.8436C104.65 46.4521 103.237 40.9872 100.49 37.4487C97.7817 33.9102 93.641 32.141 88.0679 32.141C81.906 32.141 77.2747 34.0872 74.1742 37.9795C71.0736 41.8718 69.5233 47.494 69.5233 54.8461C69.5233 61.8444 71.0736 67.2701 74.1742 71.1231C77.2747 74.9368 81.749 76.8436 87.5969 76.8436C91.4432 76.8436 94.7596 75.9786 97.5462 74.2487C100.372 72.4795 102.57 69.9632 104.14 66.7L116.208 70.5333C113.736 76.2342 109.988 80.6573 104.964 83.8026C99.9403 86.9085 94.3475 88.4615 88.1856 88.4615ZM65.52 58.3256V48.7128H110.91V58.3256H65.52Z" fill="black"/>
<path d="M199.986 86.6923L200.045 47.0026C200.045 42.4026 198.868 38.8248 196.513 36.2692C194.158 33.6744 191.058 32.3769 187.211 32.3769C184.856 32.3769 182.698 32.9273 180.735 34.0282C178.812 35.0897 177.242 36.7017 176.026 38.8641C174.848 40.9872 174.26 43.6607 174.26 46.8846L168.314 43.8769C168.235 39.3949 169.177 35.4632 171.139 32.082C173.141 28.7008 175.849 26.0863 179.264 24.2385C182.678 22.3513 186.505 21.4077 190.744 21.4077C197.612 21.4077 202.93 23.4718 206.698 27.6C210.466 31.7282 212.35 37.2128 212.35 44.0538L212.291 86.6923H199.986ZM123.748 86.6923V23H134.698V41.4H136.111V86.6923H123.748ZM161.897 86.6923L161.955 47.2385C161.955 42.5991 160.778 38.9624 158.423 36.3282C156.108 33.694 152.987 32.3769 149.063 32.3769C145.177 32.3769 142.037 33.7137 139.643 36.3872C137.288 39.0607 136.111 42.5598 136.111 46.8846L130.224 43.1103C130.224 38.9427 131.224 35.2273 133.226 31.9641C135.228 28.7009 137.936 26.1256 141.35 24.2385C144.765 22.3513 148.631 21.4077 152.948 21.4077C157.462 21.4077 161.308 22.3709 164.487 24.2974C167.666 26.1846 170.08 28.8385 171.728 32.259C173.416 35.6795 174.26 39.6504 174.26 44.1718L174.201 86.6923H161.897Z" fill="black"/>
<path d="M252.775 88.4615C246.692 88.4615 241.589 86.9872 237.468 84.0385C233.347 81.0504 230.227 77.0205 228.108 71.9487C225.988 66.8769 224.929 61.1564 224.929 54.7872C224.929 48.4179 225.969 42.6974 228.049 37.6256C230.168 32.5538 233.269 28.5632 237.351 25.6538C241.472 22.7051 246.535 21.2308 252.54 21.2308C258.505 21.2308 263.647 22.7051 267.964 25.6538C272.32 28.5632 275.676 32.5538 278.031 37.6256C280.386 42.6581 281.563 48.3786 281.563 54.7872C281.563 61.1564 280.386 66.8966 278.031 72.0077C275.715 77.0795 272.399 81.0897 268.082 84.0385C263.804 86.9872 258.701 88.4615 252.775 88.4615ZM222.868 115V23H233.818V68.8231H235.231V115H222.868ZM251.068 77.3154C254.993 77.3154 258.23 76.3128 260.782 74.3077C263.372 72.3026 265.295 69.6094 266.551 66.2282C267.846 62.8077 268.494 58.994 268.494 54.7872C268.494 50.6197 267.846 46.8453 266.551 43.4641C265.295 40.0829 263.352 37.3897 260.723 35.3846C258.093 33.3795 254.737 32.3769 250.656 32.3769C246.809 32.3769 243.63 33.3205 241.118 35.2077C238.646 37.0949 236.801 39.7291 235.585 43.1103C234.407 46.4914 233.818 50.3838 233.818 54.7872C233.818 59.1906 234.407 63.0829 235.585 66.4641C236.762 69.8453 238.626 72.4991 241.177 74.4256C243.728 76.3521 247.025 77.3154 251.068 77.3154Z" fill="black"/>
<path d="M291.03 86.6923V0H303.334V86.6923H291.03Z" fill="black"/>
<path d="M334.259 88.4615C329.549 88.4615 325.605 87.5966 322.426 85.8667C319.247 84.0974 316.833 81.7778 315.184 78.9077C313.575 75.9983 312.771 72.8137 312.771 69.3538C312.771 66.1299 313.34 63.2991 314.478 60.8615C315.616 58.4239 317.304 56.3598 319.541 54.6692C321.778 52.9393 324.525 51.5436 327.783 50.482C330.609 49.6564 333.807 48.9291 337.379 48.3C340.951 47.6709 344.699 47.0812 348.624 46.5308C352.588 45.9803 356.512 45.4299 360.398 44.8795L355.924 47.3564C356.002 42.3632 354.942 38.6675 352.745 36.2692C350.586 33.8316 346.857 32.6128 341.559 32.6128C338.223 32.6128 335.162 33.3991 332.375 34.9718C329.588 36.5051 327.646 39.0607 326.547 42.6385L315.067 39.1C316.637 33.635 319.619 29.2906 324.015 26.0667C328.45 22.8427 334.337 21.2308 341.677 21.2308C347.368 21.2308 352.313 22.2137 356.512 24.1795C360.751 26.106 363.852 29.1726 365.814 33.3795C366.834 35.4632 367.462 37.665 367.698 39.9846C367.933 42.3043 368.051 44.8008 368.051 47.4744V86.6923H357.16V72.1256L359.279 74.0128C356.65 78.888 353.294 82.5248 349.212 84.9231C345.17 87.2821 340.185 88.4615 334.259 88.4615ZM336.437 78.3769C339.93 78.3769 342.933 77.7675 345.444 76.5487C347.956 75.2906 349.978 73.6983 351.508 71.7718C353.039 69.8453 354.04 67.8402 354.511 65.7564C355.178 63.8692 355.551 61.7461 355.629 59.3872C355.747 57.0282 355.806 55.141 355.806 53.7256L359.809 55.2C355.924 55.7897 352.391 56.3205 349.212 56.7923C346.033 57.2641 343.148 57.7359 340.558 58.2077C338.007 58.6402 335.731 59.1709 333.729 59.8C332.041 60.3897 330.53 61.0974 329.196 61.9231C327.901 62.7487 326.861 63.7513 326.076 64.9308C325.33 66.1103 324.957 67.5453 324.957 69.2359C324.957 70.8872 325.369 72.4205 326.193 73.8359C327.018 75.212 328.274 76.3128 329.961 77.1385C331.649 77.9641 333.807 78.3769 336.437 78.3769Z" fill="black"/>
<path d="M415.011 86.6923C411.008 87.4786 407.083 87.8128 403.237 87.6949C399.391 87.5769 395.957 86.8299 392.935 85.4538C389.912 84.0778 387.636 81.9154 386.105 78.9667C384.732 76.3325 383.986 73.659 383.868 70.9462C383.79 68.194 383.751 65.088 383.751 61.6282V5.30769H396.114V61.0385C396.114 63.594 396.133 65.8154 396.172 67.7026C396.251 69.5897 396.663 71.182 397.409 72.4795C398.822 74.9171 401.059 76.3128 404.12 76.6667C407.221 76.9812 410.851 76.8436 415.011 76.2538V86.6923ZM371.564 32.9077V23H415.011V32.9077H371.564Z" fill="black"/>
<path d="M449.032 88.4615C442.713 88.4615 437.159 87.0855 432.371 84.3333C427.622 81.5419 423.913 77.6692 421.244 72.7154C418.615 67.7222 417.3 61.9427 417.3 55.3769C417.3 48.4179 418.595 42.3829 421.186 37.2718C423.815 32.1607 427.465 28.2094 432.136 25.4179C436.806 22.6265 442.242 21.2308 448.443 21.2308C454.919 21.2308 460.433 22.7444 464.986 25.7718C469.539 28.7598 472.934 33.0256 475.171 38.5692C477.447 44.1128 478.35 50.6983 477.879 58.3256H465.575V53.8436C465.496 46.4521 464.083 40.9872 461.336 37.4487C458.628 33.9102 454.487 32.141 448.914 32.141C442.752 32.141 438.121 34.0872 435.02 37.9795C431.92 41.8718 430.37 47.494 430.37 54.8461C430.37 61.8444 431.92 67.2701 435.02 71.1231C438.121 74.9368 442.595 76.8436 448.443 76.8436C452.289 76.8436 455.606 75.9786 458.392 74.2487C461.218 72.4795 463.416 69.9632 464.986 66.7L477.055 70.5333C474.582 76.2342 470.834 80.6573 465.81 83.8026C460.787 86.9085 455.194 88.4615 449.032 88.4615ZM426.366 58.3256V48.7128H471.756V58.3256H426.366Z" fill="black"/>
</svg>
